<svg 
  version="1.0" 
  xmlns="http://www.w3.org/2000/svg" 
  width="250" 
  height="250" 
  viewBox="0 0 250 250" 
  preserveAspectRatio="xMidYMid meet"
>
  <circle cx="125" cy="125" r="125" fill="#ffffff" />
  <g transform="translate(0, 250) scale(0.1,-0.1)" fill="#0052FF">
    <path d="M1095 2489 c-503 -65 -918 -428 -1050 -921 -123 -459 32 -956 396 -1266 255
      -218 600 -328 921 -294 534 56 956 413 1093 924 143 531 -86 1097 -560 1384 -238 145 
      -527 207 -800 173z m250 -109 c277 -27 515 -137 706 -329 444 -443 444 -1159 0 -1602 
      -443 -444 -1159 -444 -1602 0 -444 443 -444 1159 0 1602 185 186 432 303 688 328 49 
      5 90 9 93 10 3 0 55 -4 115 -9z"
    />
    <path d="M1206 2021 c-2 -3 -13 -49 -26 -101 -12 -52 -26 -99 -31 -104 -4 -5
      -58 4 -127 23 -65 17 -124 31 -130 31 -11 0 -24 -38 -38 -107 -6 -29 -4 -31
      33 -38 63 -12 103 -32 113 -60 8 -21 -5 -86 -65 -328 -42 -166 -80 -313 -86
      -326 -9 -22 -14 -23 -62 -18 -29 4 -61 9 -73 12 -18 6 -25 -3 -52 -66 -18 -40
      -31 -73 -30 -75 2 -1 59 -16 128 -34 69 -18 128 -35 132 -39 4 -3 -4 -51 -18
      -105 -14 -54 -23 -104 -21 -111 5 -10 115 -41 121 -33 2 1 11 35 20 73 9 39
      21 86 27 107 l9 36 51 -13 c28 -8 53 -16 56 -18 2 -3 -8 -51 -22 -107 -14 -57
      -22 -106 -18 -110 8 -7 93 -30 111 -30 5 0 22 49 37 110 l27 109 47 -7 c75
      -11 223 -8 265 7 96 33 175 155 183 281 6 83 -21 140 -89 190 l-48 35 38 19
      c76 38 119 99 129 186 14 117 -50 207 -191 271 -42 19 -76 38 -76 42 0 5 11
      54 25 109 14 55 25 101 23 103 -2 1 -31 9 -65 17 l-61 15 -23 -91 c-31 -128
      -29 -126 -85 -113 -25 6 -48 16 -51 23 -2 6 7 56 21 110 14 54 24 99 23 100
      -11 7 -128 30 -131 25z m127 -417 c165 -43 234 -120 193 -217 -22 -53 -87 -82
      -165 -74 -67 7 -151 25 -168 35 -9 6 -4 38 18 127 36 147 36 145 50 145 6 0
      38 -7 72 -16z m-10 -433 c122 -41 187 -111 172 -187 -13 -72 -77 -114 -171
      -114 -45 0 -191 25 -229 40 l-23 9 34 138 c19 76 36 143 39 149 4 13 72 0 178 -35z"
    />
  </g>
</svg>
